<svg xmlns="http://www.w3.org/2000/svg" xmlns:xlink="http://www.w3.org/1999/xlink" id="svg2" x="0" y="0" version="1.1" viewBox="0 0 514.6 435.1" xml:space="preserve" style="enable-background:new 0 0 514.6 435.1"><style type="text/css">.st0{fill:#9d5900}</style><circle cx="246.8" cy="421.3" r="13.8" class="st0"/><circle cx="389.7" cy="421.3" r="13.8" class="st0"/><path d="M405.8,366.3H219.6c-14.4-0.1-27.3-9-32.6-22.4L65.2,27.2c-2.6-6.7-8.2-11.7-15.1-13.6	c-6.6-1.8-13.6-0.4-18.9,3.9C19.7,26.8,13,40.8,13,55.6H0C0,36.9,8.4,19.2,23,7.5c8.6-6.9,19.9-9.2,30.5-6.3	c10.9,2.9,19.8,10.9,23.8,21.4l121.8,316.6c3.3,8.4,11.4,14,20.5,14h186.2c9.1,0,17.3-5.7,20.5-14.2l76.1-202.8l12.2,4.6	l-76.1,202.8C433.4,357.3,420.4,366.3,405.8,366.3z" class="st0"/><path d="M323.7,70.9v75.5h72.7v19.3h-72.7V242h-20.6v-76.2h-72.7v-19.3h72.7V70.9H323.7z" class="st0"/></svg>