<svg xmlns="http://www.w3.org/2000/svg" xmlns:svg="http://www.w3.org/2000/svg" xmlns:xlink="http://www.w3.org/1999/xlink" id="svg2" x="0" y="0" version="1.1" viewBox="0 0 514.6 435.2" xml:space="preserve" style="enable-background:new 0 0 514.6 435.2"><circle cx="246.8" cy="421.4" r="13.8"/><circle cx="389.7" cy="421.4" r="13.8"/><path d="M405.8,366.4C405.8,366.4,405.8,366.4,405.8,366.4l-186.2,0c-14.3,0-27.4-9-32.6-22.4L65.2,27.3	c-2.6-6.7-8.1-11.7-15.1-13.6c-6.7-1.8-13.6-0.4-18.9,3.9C19.6,27,13,40.9,13,55.7H0C0,36.9,8.4,19.4,23,7.6	c8.6-6.9,19.7-9.2,30.5-6.3c10.9,2.9,19.8,10.9,23.8,21.4l121.8,316.6c3.2,8.4,11.5,14,20.5,14l186.2,0c0,0,0,0,0,0	c9.1,0,17.3-5.7,20.5-14.2l76.1-202.8l12.2,4.6l-76.1,202.8C433.4,357.3,420.3,366.4,405.8,366.4z"/></svg>